<?xml version="1.0" standalone="no"?>
<!DOCTYPE svg PUBLIC "-//W3C//DTD SVG 1.1//EN" "http://www.w3.org/Graphics/SVG/1.1/DTD/svg11.dtd" >
<svg>
<metadata>
Created by FontForge 20090914 at Fri Feb 12 21:45:24 2016
 By www-data
Jakub Deg&#195;&#179;rski 2000. All Rights Reserved
</metadata>
<defs>
<font id="!PEPSI!" horiz-adv-x="636" >
  <font-face 
    font-family="! PEPSI !"
    font-weight="400"
    font-stretch="normal"
    units-per-em="2048"
    panose-1="2 0 0 0 0 0 0 0 0 0"
    ascent="1638"
    descent="-410"
    x-height="1394"
    cap-height="1398"
    bbox="-84 -380 1884 1808"
    underline-thickness="48"
    underline-position="-140"
    unicode-range="U+0020-U+F002"
  />
<missing-glyph horiz-adv-x="500" 
d="M63 0v1280h1024v-1280h-1024zM95 32h960v1216h-960v-1216z" />
    <glyph glyph-name=".notdef" horiz-adv-x="500" 
d="M63 0v1280h1024v-1280h-1024zM95 32h960v1216h-960v-1216z" />
    <glyph glyph-name="space" unicode=" " horiz-adv-x="390" 
 />
    <glyph glyph-name="exclam" unicode="!" horiz-adv-x="1957" 
d="M1884 622c-296.667 60 -596.831 60.333 -900.498 1s-604.167 -59 -901.5 1c32.667 -304 189.167 -529.833 469.5 -677.5s561.666 -153.5 843.999 -17.5s445.166 367 488.499 693zM1880 829c-297.333 60.667 -597.83 61.168 -901.497 1.50098
s-603.834 -59.167 -900.501 1.5c43.333 326 206.166 557 488.499 693s563.666 130.167 843.999 -17.5s436.833 -373.834 469.5 -678.501zM112.006 864.001c319.333 -58.667 599.666 -59.499 840.999 -2.49902s536.333 61.167 885 12.5
c-29.333 256 -177.166 457.167 -443.499 603.5s-531.833 158.666 -796.5 36.999s-426.667 -338.5 -486 -650.5z" />
    <glyph glyph-name="quotedbl" unicode="&#x22;" horiz-adv-x="237" 
 />
    <glyph glyph-name="numbersign" unicode="#" 
 />
    <glyph glyph-name="dollar" unicode="$" 
 />
    <glyph glyph-name="percent" unicode="%" 
 />
    <glyph glyph-name="ampersand" unicode="&#x26;" horiz-adv-x="486" 
 />
    <glyph glyph-name="quotesingle" unicode="'" horiz-adv-x="169" 
 />
    <glyph glyph-name="parenleft" unicode="(" horiz-adv-x="336" 
 />
    <glyph glyph-name="parenright" unicode=")" horiz-adv-x="384" 
 />
    <glyph glyph-name="asterisk" unicode="*" horiz-adv-x="492" 
 />
    <glyph glyph-name="plus" unicode="+" 
 />
    <glyph glyph-name="comma" unicode="," horiz-adv-x="462" 
d="M106 111c9.33301 90.667 60 143.667 152 159c96.667 -7.33301 142 -54.666 136 -141.999l-23 -236c-12 -104.667 -68.667 -159.334 -170 -164.001c-81.333 12 -122 55.333 -122 130l27 253v0z" />
    <glyph glyph-name="hyphen" unicode="-" horiz-adv-x="471" 
 />
    <glyph glyph-name="hyphen" unicode="&#x2010;" horiz-adv-x="471" 
 />
    <glyph glyph-name="period" unicode="." horiz-adv-x="518" 
d="M63 150c4.66699 120.667 63 185.999 175 195.999c120 -4.66699 183.333 -65 190 -181c-4.66699 -115.333 -69 -174.666 -193 -177.999c-102 12 -159.333 66.333 -172 163z" />
    <glyph glyph-name="slash" unicode="/" horiz-adv-x="357" 
 />
    <glyph glyph-name="zero" unicode="0" horiz-adv-x="1544" 
d="M1058 -20l-664 -0.000976562c-295.333 -1.33301 -418.333 236.334 -369 713.001c46 482 225.667 724.333 539 727l545 -1c327.333 6 465 -226.667 413 -698c-22 -488 -176.667 -735 -464 -741zM408 465.999c20 -64 60.998 -101.999 122.998 -113.999l392 1
c66.667 7.33301 113.334 37.666 140.001 90.999c32.667 37.333 55.334 128.5 68.001 273.5s2.66699 237.5 -30 277.5c-31.333 42 -80 66 -146 72h-302c-87.333 -6.66699 -149.333 -49 -186 -127c-24 -36 -43 -117.5 -57 -244.5s-14.667 -203.5 -2 -229.5z" />
    <glyph glyph-name="one" unicode="1" horiz-adv-x="578" 
d="M163 1398h409l-139 -1400h-418z" />
    <glyph glyph-name="two" unicode="2" horiz-adv-x="1546" 
d="M1265 611l-514 -248h742l-37 -368h-1216c-144 14 -224.333 80.667 -241 200c-7.33301 119.333 43 218.666 151 297.999l808 374c76 30.667 110.167 65.834 102.5 105.501s-53.167 58.5 -136.5 56.5h-812l37 369h969c260 -9.33301 401.333 -119 424 -329
c7.33301 -198 -85 -350.667 -277 -458z" />
    <glyph glyph-name="three" unicode="3" horiz-adv-x="1473" 
d="M59 358l897.999 1.00098c46.667 5.33301 84.334 38.333 113.001 99c14.667 46.667 -4.33301 74.667 -57 84l-553 1l46 346l497 -1c62.667 0.666992 94 39.334 94 116.001c-6 38.667 -45.667 56.667 -119 54l-856 1l34 342h896c284 1.33301 426.333 -116.334 427 -353.001
c-19.333 -144 -73.333 -255.333 -162 -334c118.667 -72 160 -195 124 -369c-62.667 -206.667 -233.667 -323.334 -513 -350.001h-913z" />
    <glyph glyph-name="four" unicode="4" horiz-adv-x="1498" 
d="M1086 916l-449 -332h415zM1020 255h-815c-123.333 0 -182.666 61.333 -177.999 184c15.333 76.667 61 137.334 137 182.001l992 748c37.333 31.333 96.666 45.666 177.999 42.999c108 2.66699 162.333 -44 163 -140l-127 -1272h-375z" />
    <glyph glyph-name="five" unicode="5" horiz-adv-x="1554" 
d="M37 338h874.997c65.333 0 113.333 6.66699 144 20s49.334 37 56.001 71c0.666992 39.333 -13 66 -41 80s-74.667 21 -140 21h-708c-111.333 0 -161.333 56 -150 168l48 483c14.667 144.667 89.334 217 224.001 217h1191l-37 -371h-1023l-13 -130h601
c166.667 -2.66699 287.334 -39 362.001 -109s106.667 -172.667 96 -308c-12.667 -186 -72.167 -314 -178.5 -384s-256.5 -105 -450.5 -105h-891z" />
    <glyph glyph-name="six" unicode="6" horiz-adv-x="1549" 
d="M1089 620h-707c-52.667 -192 -1.66699 -300 153 -324h484c98 4.66699 157.333 43 178 115c25.333 133.333 -10.667 203 -108 209zM1029 951c192.667 5.33301 328.332 -49.1689 406.999 -163.502s102.334 -257.166 71.001 -428.499c-62 -247.333 -216.333 -373 -463 -377
h-666c-117.333 22.667 -212.166 85.334 -284.499 188.001s-96.5 275.667 -72.5 519c24.667 248 102.167 433 232.5 555s365.166 177.333 704.499 166h556l-34 -339h-824c-87.333 -4.66699 -147 -44.667 -179 -120h552z" />
    <glyph glyph-name="seven" unicode="7" horiz-adv-x="1459" 
d="M952 -1l89 872c18.667 110.667 -30.333 167 -147 169l-854 1l32 366h967c306 -15.333 440.667 -191 404 -527l-90 -881h-401z" />
    <glyph glyph-name="eight" unicode="8" horiz-adv-x="1521" 
d="M968 -15l-516.003 0.000976562c-277.333 27.333 -426.666 145.666 -447.999 354.999c-0.666992 202.667 66.333 340.667 201 414c-73.333 80 -105.666 179.667 -96.999 299c53.333 227.333 204 347.666 452 360.999h590c252.667 -8.66699 376.334 -130.667 371.001 -366
c-20 -118 -73.333 -216.333 -160 -295c120 -73.333 160.333 -210.666 121 -411.999c-62 -209.333 -233.333 -328 -514 -356zM458.997 321.001l507.001 -0.00195312c83.333 5.33301 133.166 41.5 149.499 108.5s-23.5 108.5 -119.5 124.5h-535
c-64.667 -21.333 -99.5 -59.666 -104.5 -114.999s29.167 -94.666 102.5 -117.999zM546.998 875.999h455.998c75.333 5.33301 121 40.5 137 105.5s-16.667 105.167 -98 120.5h-463c-67.333 -8 -106.666 -41.5 -117.999 -100.5s17.334 -100.833 86.001 -125.5z" />
    <glyph glyph-name="nine" unicode="9" horiz-adv-x="1542" 
d="M462 789l705 -0.000976562c52 190.667 1.33301 298 -152 322h-482c-98 -4.66699 -157.333 -42.667 -178 -114c-24.667 -133.333 11 -202.666 107 -207.999zM522 448.999c-191.333 -5.33301 -326.166 48.999 -404.499 162.999s-101.833 256 -70.5 426
c61.333 246.667 215 372 461 376h663c116.667 -22.667 211.167 -85 283.5 -187s96.166 -274.667 71.499 -518c-24.667 -229.333 -73 -399.666 -145 -510.999c-82 -125.333 -198.333 -194 -349 -206h-993l34 338h821c107.333 7.33301 175.333 47 204 119h-576z" />
    <glyph glyph-name="colon" unicode=":" horiz-adv-x="231" 
 />
    <glyph glyph-name="semicolon" unicode=";" horiz-adv-x="237" 
 />
    <glyph glyph-name="less" unicode="&#x3c;" 
 />
    <glyph glyph-name="equal" unicode="=" 
 />
    <glyph glyph-name="greater" unicode="&#x3e;" 
 />
    <glyph glyph-name="question" unicode="?" horiz-adv-x="567" 
 />
    <glyph glyph-name="at" unicode="@" horiz-adv-x="579" 
 />
    <glyph glyph-name="A" unicode="A" horiz-adv-x="1441" 
d="M-35 4l95 952.999c44 286.667 217 436.334 519 449.001l474 -1c274.667 -18.667 403.667 -167 387 -445l-96 -958h-372l43 426l-622 3l-42 -427h-386zM446 926.999l-16 -149h621l13 117c20 108 -11.333 168.333 -94 181l-376 -1c-100 -2.66699 -149.333 -52 -148 -148z
" />
    <glyph glyph-name="B" unicode="B" horiz-adv-x="1478" 
d="M102 1398l969.001 0.000976562c268.667 -22 404.667 -143 408 -363c-4.66699 -138 -47.667 -243.667 -129 -317c105.333 -62.667 145.666 -180.334 120.999 -353.001c-38 -246 -221.667 -367.333 -551 -364l-954 -1zM425.001 338.001l482.998 -1
c76.667 2.66699 119.834 31.167 129.501 85.5s-29.166 85.833 -116.499 94.5l-478 5zM472.999 862.001l482.998 -1c76.667 2.66699 119.834 31 129.501 85s-27.166 87.333 -110.499 100h-484z" />
    <glyph glyph-name="C" unicode="C" horiz-adv-x="1454" 
d="M1355 0l-987 -0.00292969c-284 16.667 -404 250.334 -360 701.001s219 683.667 525 699l961 -1l-34 -341h-849c-63.333 -0.666992 -109.666 -23 -138.999 -67c-68 -173.333 -95 -346.666 -81 -519.999c7.33301 -55.333 40.666 -90.666 99.999 -105.999l900 -2z" />
    <glyph glyph-name="D" unicode="D" horiz-adv-x="1464" 
d="M103 1394l953.001 -1c303.333 -17.333 432.166 -250 386.499 -698s-211.5 -680.667 -497.5 -698l-982 1zM359.001 354l547.001 -1c58 8 99.667 39.667 125 95c32.667 52 55.167 134 67.5 246s3.16602 206.333 -27.501 283c-21.333 47.333 -64 72.333 -128 75h-515z" />
    <glyph glyph-name="E" unicode="E" horiz-adv-x="1471" 
d="M1359 0l-986 -0.000976562c-282.667 16.667 -402.167 249.834 -358.5 699.501s218.5 682.167 524.5 697.5h959l-34 -340l-850 -1c-72 2.66699 -115 -15.333 -129 -54l-34 -120l997 -1l-36 -336l-989 4l1 -79c2.66699 -66.667 26.667 -102.667 72 -108l899 1z" />
    <glyph glyph-name="F" unicode="F" horiz-adv-x="1492" 
d="M-32 -3l86 878c30.667 334.667 199.667 509.667 507 525l964 -1l-34 -342h-854c-72.667 2.66699 -125 -31.333 -157 -102l-7 -73l1003 1l-34 -337l-997 1l-56 -550h-421z" />
    <glyph glyph-name="G" unicode="G" horiz-adv-x="1462" 
d="M1359 0l-987 -0.00292969c-284 16.667 -404 250.334 -360 701.001s219 683.667 525 699l963 -1l-36 -341h-849c-63.333 -0.666992 -109.666 -23 -138.999 -67c-68 -173.333 -95 -346.666 -81 -519.999c7.33301 -55.333 40.666 -90.666 99.999 -105.999l532 -1l42 409
l367 -1z" />
    <glyph glyph-name="H" unicode="H" horiz-adv-x="1427" 
d="M102 1402h418l-52 -518l520 2l55 519l418 -3l-140 -1406l-423 2l56 542h-521l-53 -540h-418z" />
    <glyph glyph-name="I" unicode="I" horiz-adv-x="499" 
d="M116 1398h409l-139 -1400h-418z" />
    <glyph glyph-name="J" unicode="J" horiz-adv-x="904" 
d="M938 1406l-86 -878c-30.667 -334.667 -199.667 -509.667 -507 -525h-381l36 342l269 1c77.333 2 129 45.667 155 131l93 929h421z" />
    <glyph glyph-name="K" unicode="K" horiz-adv-x="1492" 
d="M95 1407h458l-67 -674c12 86 49 157.667 111 215l417 459h552l-524 -635c-42 -49.333 -45 -100 -9 -152l399 -616h-558l-329 479c-49.333 65.333 -70 138.333 -62 219l-70 -698h-458z" />
    <glyph glyph-name="L" unicode="L" horiz-adv-x="1469" 
d="M517 1401l-88.001 -871.999c-1.33301 -84.667 41.667 -131.334 129 -140.001l854 -1l-37 -395h-968c-305.333 15.333 -439.666 191 -402.999 527l89 881h424z" />
    <glyph glyph-name="M" unicode="M" horiz-adv-x="1755" 
d="M-33 -6l141 1407l1255 -3c277.333 8 408.333 -140 393 -444l-96 -959h-355l84 849c20 105.333 -10.333 156.666 -91 153.999l-188 -1l-101 -1001l-354 -1l100 1005l-303 1l-100 -1007h-385z" />
    <glyph glyph-name="N" unicode="N" horiz-adv-x="1454" 
d="M-27 -6l140.999 1407h951c274.667 6 404.334 -143 389.001 -447l-96 -959h-373l94 879c16.667 90.667 -17 133 -101 127h-518l-100 -1007h-387z" />
    <glyph glyph-name="O" unicode="O" horiz-adv-x="1522" 
d="M1045 -20l-664 -0.000976562c-295.333 -1.33301 -418.333 236.334 -369 713.001c46 482 225.667 724.333 539 727l545 -1c327.333 6 465 -226.667 413 -698c-22 -488 -176.667 -735 -464 -741zM395 465.999c20 -64 60.998 -101.999 122.998 -113.999l392 1
c66.667 7.33301 113.334 37.666 140.001 90.999c32.667 37.333 55.334 128.5 68.001 273.5s2.66699 237.5 -30 277.5c-31.333 42 -80 66 -146 72h-302c-87.333 -6.66699 -149.333 -49 -186 -127c-24 -36 -43 -117.5 -57 -244.5s-14.667 -203.5 -2 -229.5z" />
    <glyph glyph-name="P" unicode="P" horiz-adv-x="1486" 
d="M100 1400h971c306 -15.333 443.167 -175.333 411.5 -480s-192.5 -465.667 -482.5 -483h-577l-44 -436l-419 -1zM466 807l518.999 2.00098c76.667 -0.666992 120.834 36.166 132.501 110.499s-24.5 117.833 -108.5 130.5h-519z" />
    <glyph glyph-name="Q" unicode="Q" horiz-adv-x="1496" 
d="M1247 57l71.999 -130.001l-464 -2l-35 65h-444c-291.333 -1.33301 -412.666 233 -363.999 703c45.333 475.333 222.666 714.333 531.999 717l537 -1c322.667 6 458.334 -223.333 407.001 -688c-24 -357.333 -104.333 -578.666 -241 -663.999zM389.999 468.999
c19.333 -63.333 59.667 -100.667 121 -112l387 1c65.333 6.66699 111.333 36.334 138 89.001c32 37.333 54.167 127.5 66.5 270.5s2.5 234.167 -29.5 273.5c-30.667 41.333 -78.667 65 -144 71h-298c-86 -6.66699 -147 -48.334 -183 -125.001
c-24 -36 -42.833 -116.5 -56.5 -241.5s-14.167 -200.5 -1.5 -226.5z" />
    <glyph glyph-name="R" unicode="R" horiz-adv-x="1505" 
d="M99 1400l970.001 0.00195312c293.333 -48.667 432.666 -207.334 417.999 -476.001c-4 -196.667 -82 -352.334 -234 -467.001l196 -461h-467l-190 441h-371l-43 -436l-420 -1zM465.001 807.002l514.998 -0.999023c78.667 1.33301 123.834 39.166 135.501 113.499
s-24.166 117.833 -107.499 130.5h-519z" />
    <glyph glyph-name="S" unicode="S" horiz-adv-x="1345" 
d="M1353 1034h-774.998c-52.667 0 -93.167 -2.5 -121.5 -7.5s-53.166 -25.5 -74.499 -61.5c6.66699 -45.333 24.667 -70.833 54 -76.5s74.666 -8.5 135.999 -8.5h379c152 -8.66699 258.333 -52.667 319 -132s84 -190 70 -332c-22.667 -142 -72.667 -246.833 -150 -314.5
s-205 -102.834 -383 -105.501h-846l36 359h804c69.333 0 122.166 2.5 158.499 7.5s61.166 31.833 74.499 80.5c-4.66699 38.667 -23.167 61.834 -55.5 69.501s-86.5 11.5 -162.5 11.5h-366c-161.333 0 -275.5 39.333 -342.5 118s-93.5 187.667 -79.5 327
c26 146 78.667 252 158 318s205 103 377 111h826z" />
    <glyph glyph-name="T" unicode="T" horiz-adv-x="1549" 
d="M1329 1401l-39 -396l-717 1l-49 -474c-0.666992 -84 42.333 -130.333 129 -139l851 -1l-37 -394h-964c-304.667 15.333 -438.667 190.333 -402 525l50 486l-115 -2l40 394h1253z" />
    <glyph glyph-name="U" unicode="U" horiz-adv-x="1438" 
d="M1477 1399l-140.999 -1402h-947c-274 -5.33301 -403.333 143.334 -388 446.001l96 955h371l-93 -875c-16.667 -90.667 16.666 -133 99.999 -127h516l100 1002z" />
    <glyph glyph-name="V" unicode="V" horiz-adv-x="1699" 
d="M515 119l-509.999 1279h488l324 -822l467 822h468l-738 -1279c-56.667 -93.333 -144.334 -140 -263.001 -140c-118 0 -196.667 46.667 -236 140z" />
    <glyph glyph-name="W" unicode="W" horiz-adv-x="1779" 
d="M1801 1396l-141 -1410l-1258 3c-278 -8 -409.667 140.667 -395 446l97 960l356 1l-85 -852c-20 -105.333 10.667 -156.666 92 -153.999l188 1l102 1004h354l-100 -1007h304l100 1008h386z" />
    <glyph glyph-name="X" unicode="X" horiz-adv-x="1556" 
d="M592 695l-517 699h537l221 -310l289 310h513l-625 -679l526 -719h-530l-240 313l-308 -313h-542z" />
    <glyph glyph-name="Y" unicode="Y" horiz-adv-x="1438" 
d="M1466 1398l-113 -1131c-15.333 -165.333 -119 -260.666 -311 -285.999l-1081 -2l33 375l843 -1c84 0 130 40.667 138 122l-1 8h-551c-274 -6.66699 -403.667 142.333 -389 447l48 467l372 1l-34 -384c-9.33301 -80 20.667 -123.667 90 -131h514l55 515h387z" />
    <glyph glyph-name="Z" unicode="Z" horiz-adv-x="1531" 
d="M1399 909l-660.001 -513.999h727l-40 -400h-1216c-144 14 -224.333 80.667 -241 200c-7.33301 119.333 43 218.666 151 297.999l679 511h-719l39 394h1212c172.667 -8 247.334 -87 224.001 -237c-13.333 -107.333 -65.333 -191.333 -156 -252z" />
    <glyph glyph-name="bracketleft" unicode="[" horiz-adv-x="282" 
 />
    <glyph glyph-name="backslash" unicode="\" horiz-adv-x="318" 
 />
    <glyph glyph-name="bracketright" unicode="]" horiz-adv-x="312" 
 />
    <glyph glyph-name="asciicircum" unicode="^" horiz-adv-x="330" 
 />
    <glyph glyph-name="underscore" unicode="_" horiz-adv-x="490" 
 />
    <glyph glyph-name="grave" unicode="`" horiz-adv-x="357" 
 />
    <glyph glyph-name="a" unicode="a" horiz-adv-x="1428" 
d="M-50 4l95 952.999c44 286.667 217 436.334 519 449.001l474 -1c274.667 -18.667 403.667 -167 387 -445l-96 -958h-372l43 426l-622 3l-42 -427h-386zM431 926.999l-16 -149h621l13 117c20 108 -11.333 168.333 -94 181l-376 -1c-100 -2.66699 -149.333 -52 -148 -148z
" />
    <glyph glyph-name="b" unicode="b" horiz-adv-x="1463" 
d="M88 1398l969.001 0.000976562c268.667 -22 404.667 -143 408 -363c-4.66699 -138 -47.667 -243.667 -129 -317c105.333 -62.667 145.666 -180.334 120.999 -353.001c-38 -246 -221.667 -367.333 -551 -364l-954 -1zM411.001 338.001l482.998 -1
c76.667 2.66699 119.834 31.167 129.501 85.5s-29.166 85.833 -116.499 94.5l-478 5zM458.999 862.001l482.998 -1c76.667 2.66699 119.834 31 129.501 85s-27.166 87.333 -110.499 100h-484z" />
    <glyph glyph-name="c" unicode="c" horiz-adv-x="1464" 
d="M1361 0l-987 -0.00292969c-284 16.667 -404 250.334 -360 701.001s219 683.667 525 699l961 -1l-34 -341h-849c-63.333 -0.666992 -109.666 -23 -138.999 -67c-68 -173.333 -95 -346.666 -81 -519.999c7.33301 -55.333 40.666 -90.666 99.999 -105.999l900 -2z" />
    <glyph glyph-name="d" unicode="d" horiz-adv-x="1460" 
d="M99 1394l953.001 -1c303.333 -17.333 432.166 -250 386.499 -698s-211.5 -680.667 -497.5 -698l-982 1zM355.001 354l547.001 -1c58 8 99.667 39.667 125 95c32.667 52 55.167 134 67.5 246s3.16602 206.333 -27.501 283c-21.333 47.333 -64 72.333 -128 75h-515z" />
    <glyph glyph-name="e" unicode="e" horiz-adv-x="1466" 
d="M1362 0l-986 -0.000976562c-282.667 16.667 -402.167 249.834 -358.5 699.501s218.5 682.167 524.5 697.5h959l-34 -340l-850 -1c-72 2.66699 -115 -15.333 -129 -54l-34 -120l997 -1l-36 -336l-989 4l1 -79c2.66699 -66.667 26.667 -102.667 72 -108l899 1z" />
    <glyph glyph-name="f" unicode="f" horiz-adv-x="1472" 
d="M-42 -3l86 878c30.667 334.667 199.667 509.667 507 525l964 -1l-34 -342h-854c-72.667 2.66699 -125 -31.333 -157 -102l-7 -73l1003 1l-34 -337l-997 1l-56 -550h-421z" />
    <glyph glyph-name="g" unicode="g" horiz-adv-x="1461" 
d="M1361 0l-987 -0.00292969c-284 16.667 -404 250.334 -360 701.001s219 683.667 525 699l963 -1l-36 -341h-849c-63.333 -0.666992 -109.666 -23 -138.999 -67c-68 -173.333 -95 -346.666 -81 -519.999c7.33301 -55.333 40.666 -90.666 99.999 -105.999l532 -1l42 409
l367 -1z" />
    <glyph glyph-name="h" unicode="h" horiz-adv-x="1424" 
d="M103 1402h418l-52 -518l520 2l55 519l418 -3l-140 -1406l-423 2l56 542h-521l-53 -540h-418z" />
    <glyph glyph-name="i" unicode="i" horiz-adv-x="480" 
d="M103 1398h409l-139 -1400h-418z" />
    <glyph glyph-name="j" unicode="j" horiz-adv-x="904" 
d="M938 1406l-86 -878c-30.667 -334.667 -199.667 -509.667 -507 -525h-381l36 342l269 1c77.333 2 129 45.667 155 131l93 929h421z" />
    <glyph glyph-name="k" unicode="k" horiz-adv-x="1524" 
d="M105 1407h458l-67 -674c12 86 49 157.667 111 215l417 459h552l-524 -635c-42 -49.333 -45 -100 -9 -152l399 -616h-558l-329 479c-49.333 65.333 -70 138.333 -62 219l-70 -698h-458z" />
    <glyph glyph-name="l" unicode="l" horiz-adv-x="1451" 
d="M528 1401l-88 -869c-0.666992 -84 42.333 -130.333 129 -139l851 -1l-37 -394h-964c-304.667 15.333 -438.667 190.333 -402 525l89 878h422z" />
    <glyph glyph-name="m" unicode="m" horiz-adv-x="1766" 
d="M-37 -6l141 1407l1255 -3c277.333 8 408.333 -140 393 -444l-96 -959h-355l84 849c20 105.333 -10.333 156.666 -91 153.999l-188 -1l-101 -1001l-354 -1l100 1005l-303 1l-100 -1007h-385z" />
    <glyph glyph-name="n" unicode="n" horiz-adv-x="1438" 
d="M-44 -6l140.999 1407h951c274.667 6 404.334 -143 389.001 -447l-96 -959h-373l94 879c16.667 90.667 -17 133 -101 127h-518l-100 -1007h-387z" />
    <glyph glyph-name="o" unicode="o" horiz-adv-x="1506" 
d="M1039 -18l-661.999 -0.000976562c-294.667 -1.33301 -417.334 235.667 -368.001 711c46 480.667 225.333 722.334 538 725.001l543 -1c326 6 463 -226 411 -696c-21.333 -486.667 -175.333 -733 -462 -739zM395.001 468.999c19.333 -63.333 59.667 -100.667 121 -112
l387 1c65.333 6.66699 111.333 36.334 138 89.001c32 37.333 54.167 127.5 66.5 270.5s2.5 234.167 -29.5 273.5c-30.667 41.333 -78.667 65 -144 71h-298c-86 -6.66699 -147 -48.334 -183 -125.001c-24 -36 -42.833 -116.5 -56.5 -241.5s-14.167 -200.5 -1.5 -226.5z" />
    <glyph glyph-name="p" unicode="p" horiz-adv-x="1489" 
d="M104 1400h971c306 -15.333 443.167 -175.333 411.5 -480s-192.5 -465.667 -482.5 -483h-577l-44 -436l-419 -1zM470 807l518.999 2.00098c76.667 -0.666992 120.834 36.166 132.501 110.499s-24.5 117.833 -108.5 130.5h-519z" />
    <glyph glyph-name="q" unicode="q" horiz-adv-x="1514" 
d="M1256 57l71.999 -130.001l-464 -2l-35 65h-444c-291.333 -1.33301 -412.666 233 -363.999 703c45.333 475.333 222.666 714.333 531.999 717l537 -1c322.667 6 458.334 -223.333 407.001 -688c-24 -357.333 -104.333 -578.666 -241 -663.999zM398.999 468.999
c19.333 -63.333 59.667 -100.667 121 -112l387 1c65.333 6.66699 111.333 36.334 138 89.001c32 37.333 54.167 127.5 66.5 270.5s2.5 234.167 -29.5 273.5c-30.667 41.333 -78.667 65 -144 71h-298c-86 -6.66699 -147 -48.334 -183 -125.001
c-24 -36 -42.833 -116.5 -56.5 -241.5s-14.167 -200.5 -1.5 -226.5z" />
    <glyph glyph-name="r" unicode="r" horiz-adv-x="1500" 
d="M101 1400l970.001 0.00195312c293.333 -48.667 432.666 -207.334 417.999 -476.001c-4 -196.667 -82 -352.334 -234 -467.001l196 -461h-467l-190 441h-371l-43 -436l-420 -1zM467.001 807.002l514.998 -0.999023c78.667 1.33301 123.834 39.166 135.501 113.499
s-24.166 117.833 -107.499 130.5h-519z" />
    <glyph glyph-name="s" unicode="s" horiz-adv-x="1350" 
d="M1353 1034h-774.998c-52.667 0 -93.167 -2.5 -121.5 -7.5s-53.166 -25.5 -74.499 -61.5c6.66699 -45.333 24.667 -70.833 54 -76.5s74.666 -8.5 135.999 -8.5h379c152 -8.66699 258.333 -52.667 319 -132s84 -190 70 -332c-22.667 -142 -72.667 -246.833 -150 -314.5
s-205 -102.834 -383 -105.501h-846l36 359h804c69.333 0 122.166 2.5 158.499 7.5s61.166 31.833 74.499 80.5c-4.66699 38.667 -23.167 61.834 -55.5 69.501s-86.5 11.5 -162.5 11.5h-366c-161.333 0 -275.5 39.333 -342.5 118s-93.5 187.667 -79.5 327
c26 146 78.667 252 158 318s205 103 377 111h826z" />
    <glyph glyph-name="t" unicode="t" horiz-adv-x="1529" 
d="M1319 1401l-39 -396l-717 1l-49 -474c-0.666992 -84 42.333 -130.333 129 -139l851 -1l-37 -394h-964c-304.667 15.333 -438.667 190.333 -402 525l50 486l-115 -2l40 394h1253z" />
    <glyph glyph-name="u" unicode="u" horiz-adv-x="1445" 
d="M1479 1400l-139.999 -1398h-945c-272.667 -6 -401.334 142 -386.001 444l95 953h371l-94 -873c-16 -90 17.667 -132 101 -126h514l100 999z" />
    <glyph glyph-name="v" unicode="v" horiz-adv-x="1662" 
d="M495 119l-509.999 1279h488l324 -822l467 822h468l-738 -1279c-56.667 -93.333 -144.334 -140 -263.001 -140c-118 0 -196.667 46.667 -236 140z" />
    <glyph glyph-name="w" unicode="w" horiz-adv-x="1782" 
d="M1804 1396l-141 -1410l-1258 3c-278 -8 -409.667 140.667 -395 446l97 960l356 1l-85 -852c-20 -105.333 10.667 -156.666 92 -153.999l188 1l102 1004h354l-100 -1007h304l100 1008h386z" />
    <glyph glyph-name="x" unicode="x" horiz-adv-x="1568" 
d="M612 695l-517 699h537l221 -310l289 310h513l-625 -679l526 -719h-530l-240 313l-308 -313h-542z" />
    <glyph glyph-name="y" unicode="y" horiz-adv-x="1451" 
d="M1483 1398l-113 -1131c-15.333 -165.333 -119 -260.666 -311 -285.999l-1081 -2l33 375l843 -1c84 0 130 40.667 138 122l-1 8h-551c-274 -6.66699 -403.667 142.333 -389 447l48 467l372 1l-34 -384c-9.33301 -80 20.667 -123.667 90 -131h514l55 515h387z" />
    <glyph glyph-name="z" unicode="z" horiz-adv-x="1542" 
d="M1402 909l-660.001 -513.999h727l-40 -400h-1216c-144 14 -224.333 80.667 -241 200c-7.33301 119.333 43 218.666 151 297.999l679 511h-719l39 394h1212c172.667 -8 247.334 -87 224.001 -237c-13.333 -107.333 -65.333 -191.333 -156 -252z" />
    <glyph glyph-name="braceleft" unicode="{" horiz-adv-x="420" 
 />
    <glyph glyph-name="bar" unicode="|" horiz-adv-x="201" 
 />
    <glyph glyph-name="braceright" unicode="}" horiz-adv-x="360" 
 />
    <glyph glyph-name="asciitilde" unicode="~" 
 />
    <glyph glyph-name="Zacute" horiz-adv-x="1526" 
d="M1400 909l-660.001 -513.998h727l-40 -400h-1216c-144 14 -224.333 80.667 -241 200c-7.33301 119.333 43 218.666 151 297.999l679 511h-719l39 394h624l81 117c62.667 96.667 163.5 141.667 302.5 135s191.833 -49.334 158.5 -128.001l-82 -124h128
c172.667 -8 247.334 -87 224.001 -237c-13.333 -107.333 -65.333 -191.333 -156 -252z" />
    <glyph glyph-name="Zacute" unicode="&#x179;" horiz-adv-x="1526" 
d="M1400 909l-660.001 -513.998h727l-40 -400h-1216c-144 14 -224.333 80.667 -241 200c-7.33301 119.333 43 218.666 151 297.999l679 511h-719l39 394h624l81 117c62.667 96.667 163.5 141.667 302.5 135s191.833 -49.334 158.5 -128.001l-82 -124h128
c172.667 -8 247.334 -87 224.001 -237c-13.333 -107.333 -65.333 -191.333 -156 -252z" />
    <glyph glyph-name="nonbreakingspace" unicode="&#xa0;" horiz-adv-x="498" 
 />
    <glyph glyph-name="exclamdown" unicode="&#xa1;" horiz-adv-x="309" 
 />
    <glyph glyph-name="cent" unicode="&#xa2;" 
 />
    <glyph glyph-name="Lslash" unicode="&#xa3;" horiz-adv-x="1475" 
d="M549 1401l-49.001 -482.999l191 18l-38 -393l-192 -14c-1.33301 -84.667 41.667 -131.334 129 -140.001l854 -1l-37 -395h-968c-305.333 15.333 -439.666 191 -402.999 527l89 881h424z" />
    <glyph glyph-name="Lslash" unicode="&#x141;" horiz-adv-x="1475" 
d="M549 1401l-49.001 -482.999l191 18l-38 -393l-192 -14c-1.33301 -84.667 41.667 -131.334 129 -140.001l854 -1l-37 -395h-968c-305.333 15.333 -439.666 191 -402.999 527l89 881h424z" />
    <glyph glyph-name="currency" unicode="&#xa4;" horiz-adv-x="420" 
 />
    <glyph glyph-name="Aogonek" unicode="&#xa5;" horiz-adv-x="1430" 
d="M-38 4l95 952.999c44 286.667 217 436.334 519 449.001l474 -1c274.667 -18.667 403.667 -167 387 -445l-96 -958h-372l43 426h-619l-45 -424h-386zM443 926.999l-16 -149h621l13 117c20 108 -11.333 168.333 -94 181l-376 -1c-100 -2.66699 -149.333 -52 -148 -148z
M939 -217.001c12.667 -96.667 70 -150.999 172 -162.999c124 3.33301 188.333 62.666 193 177.999c-6.66699 116 -70 176.333 -190 181c-112 -10 -170.333 -75.333 -175 -196z" />
    <glyph glyph-name="Aogonek" unicode="&#x104;" horiz-adv-x="1430" 
d="M-38 4l95 952.999c44 286.667 217 436.334 519 449.001l474 -1c274.667 -18.667 403.667 -167 387 -445l-96 -958h-372l43 426h-619l-45 -424h-386zM443 926.999l-16 -149h621l13 117c20 108 -11.333 168.333 -94 181l-376 -1c-100 -2.66699 -149.333 -52 -148 -148z
M939 -217.001c12.667 -96.667 70 -150.999 172 -162.999c124 3.33301 188.333 62.666 193 177.999c-6.66699 116 -70 176.333 -190 181c-112 -10 -170.333 -75.333 -175 -196z" />
    <glyph glyph-name="brokenbar" unicode="&#xa6;" horiz-adv-x="201" 
 />
    <glyph glyph-name="section" unicode="&#xa7;" horiz-adv-x="420" 
 />
    <glyph glyph-name="dieresis" unicode="&#xa8;" horiz-adv-x="371" 
 />
    <glyph glyph-name="copyright" unicode="&#xa9;" horiz-adv-x="714" 
 />
    <glyph glyph-name="ordfeminine" unicode="&#xaa;" horiz-adv-x="402" 
 />
    <glyph glyph-name="guillemotleft" unicode="&#xab;" horiz-adv-x="540" 
 />
    <glyph glyph-name="logicalnot" unicode="&#xac;" horiz-adv-x="1395" 
 />
    <glyph glyph-name="minus" unicode="&#xad;" 
 />
    <glyph glyph-name="minus" unicode="&#x2212;" 
 />
    <glyph glyph-name="registered" unicode="&#xae;" horiz-adv-x="747" 
 />
    <glyph glyph-name="Zdot" unicode="&#xaf;" horiz-adv-x="1530" 
d="M1402 909l-660.001 -513.999h727l-40 -400h-1216c-144 14 -224.333 80.667 -241 200c-7.33301 119.333 43 218.666 151 297.999l679 511h-719l39 394h1212c172.667 -8 247.334 -87 224.001 -237c-13.333 -107.333 -65.333 -191.333 -156 -252zM680.999 1585
c4.66699 120.667 63 185.999 175 195.999c120 -4.66699 183.333 -65 190 -181c-4.66699 -115.333 -69 -174.666 -193 -177.999c-102 12 -159.333 66.333 -172 163z" />
    <glyph glyph-name="Zdot" unicode="&#x17b;" horiz-adv-x="1530" 
d="M1402 909l-660.001 -513.999h727l-40 -400h-1216c-144 14 -224.333 80.667 -241 200c-7.33301 119.333 43 218.666 151 297.999l679 511h-719l39 394h1212c172.667 -8 247.334 -87 224.001 -237c-13.333 -107.333 -65.333 -191.333 -156 -252zM680.999 1585
c4.66699 120.667 63 185.999 175 195.999c120 -4.66699 183.333 -65 190 -181c-4.66699 -115.333 -69 -174.666 -193 -177.999c-102 12 -159.333 66.333 -172 163z" />
    <glyph glyph-name="degree" unicode="&#xb0;" horiz-adv-x="285" 
 />
    <glyph glyph-name="plusminus" unicode="&#xb1;" 
 />
    <glyph glyph-name="twosuperior" unicode="&#xb2;" horiz-adv-x="300" 
 />
    <glyph glyph-name="lslash" unicode="&#xb3;" horiz-adv-x="1457" 
d="M534 1401l-49.001 -482.999l191 18l-38 -393l-192 -14c-1.33301 -84.667 41.667 -131.334 129 -140.001l854 -1l-37 -395h-968c-305.333 15.333 -439.666 191 -402.999 527l89 881h424z" />
    <glyph glyph-name="lslash" unicode="&#x142;" horiz-adv-x="1457" 
d="M534 1401l-49.001 -482.999l191 18l-38 -393l-192 -14c-1.33301 -84.667 41.667 -131.334 129 -140.001l854 -1l-37 -395h-968c-305.333 15.333 -439.666 191 -402.999 527l89 881h424z" />
    <glyph glyph-name="acute" unicode="&#xb4;" horiz-adv-x="462" 
 />
    <glyph glyph-name="mu" unicode="&#xb5;" horiz-adv-x="420" 
 />
    <glyph glyph-name="mu" unicode="&#x3bc;" horiz-adv-x="420" 
 />
    <glyph glyph-name="paragraph" unicode="&#xb6;" horiz-adv-x="450" 
 />
    <glyph glyph-name="periodcentered" unicode="&#xb7;" horiz-adv-x="207" 
 />
    <glyph glyph-name="periodcentered" unicode="&#x2219;" horiz-adv-x="207" 
 />
    <glyph glyph-name="cedilla" unicode="&#xb8;" horiz-adv-x="321" 
 />
    <glyph glyph-name="aogonek" unicode="&#xb9;" horiz-adv-x="1437" 
d="M-33 4l95 952.999c44 286.667 217 436.334 519 449.001l474 -1c274.667 -18.667 403.667 -167 387 -445l-96 -958h-372l43 426h-619l-45 -424h-386zM448 926.999l-16 -149h621l13 117c20 108 -11.333 168.333 -94 181l-376 -1c-100 -2.66699 -149.333 -52 -148 -148z
M944 -217.001c12.667 -96.667 70 -150.999 172 -162.999c124 3.33301 188.333 62.666 193 177.999c-6.66699 116 -70 176.333 -190 181c-112 -10 -170.333 -75.333 -175 -196z" />
    <glyph glyph-name="aogonek" unicode="&#x105;" horiz-adv-x="1437" 
d="M-33 4l95 952.999c44 286.667 217 436.334 519 449.001l474 -1c274.667 -18.667 403.667 -167 387 -445l-96 -958h-372l43 426h-619l-45 -424h-386zM448 926.999l-16 -149h621l13 117c20 108 -11.333 168.333 -94 181l-376 -1c-100 -2.66699 -149.333 -52 -148 -148z
M944 -217.001c12.667 -96.667 70 -150.999 172 -162.999c124 3.33301 188.333 62.666 193 177.999c-6.66699 116 -70 176.333 -190 181c-112 -10 -170.333 -75.333 -175 -196z" />
    <glyph glyph-name="ordmasculine" unicode="&#xba;" horiz-adv-x="402" 
 />
    <glyph glyph-name="guillemotright" unicode="&#xbb;" horiz-adv-x="540" 
 />
    <glyph glyph-name="onequarter" unicode="&#xbc;" horiz-adv-x="786" 
 />
    <glyph glyph-name="onehalf" unicode="&#xbd;" horiz-adv-x="786" 
 />
    <glyph glyph-name="threequarters" unicode="&#xbe;" horiz-adv-x="786" 
 />
    <glyph glyph-name="zdot" unicode="&#xbf;" horiz-adv-x="1520" 
d="M1392 909l-660.001 -513.999h727l-40 -400h-1216c-144 14 -224.333 80.667 -241 200c-7.33301 119.333 43 218.666 151 297.999l679 511h-719l39 394h1212c172.667 -8 247.334 -87 224.001 -237c-13.333 -107.333 -65.333 -191.333 -156 -252zM670.999 1585
c4.66699 120.667 63 185.999 175 195.999c120 -4.66699 183.333 -65 190 -181c-4.66699 -115.333 -69 -174.666 -193 -177.999c-102 12 -159.333 66.333 -172 163z" />
    <glyph glyph-name="zdot" unicode="&#x17c;" horiz-adv-x="1520" 
d="M1392 909l-660.001 -513.999h727l-40 -400h-1216c-144 14 -224.333 80.667 -241 200c-7.33301 119.333 43 218.666 151 297.999l679 511h-719l39 394h1212c172.667 -8 247.334 -87 224.001 -237c-13.333 -107.333 -65.333 -191.333 -156 -252zM670.999 1585
c4.66699 120.667 63 185.999 175 195.999c120 -4.66699 183.333 -65 190 -181c-4.66699 -115.333 -69 -174.666 -193 -177.999c-102 12 -159.333 66.333 -172 163z" />
    <glyph glyph-name="Agrave" unicode="&#xc0;" horiz-adv-x="609" 
 />
    <glyph glyph-name="Aacute" unicode="&#xc1;" horiz-adv-x="609" 
 />
    <glyph glyph-name="Acircumflex" unicode="&#xc2;" horiz-adv-x="609" 
 />
    <glyph glyph-name="Atilde" unicode="&#xc3;" horiz-adv-x="609" 
 />
    <glyph glyph-name="Adieresis" unicode="&#xc4;" horiz-adv-x="609" 
 />
    <glyph glyph-name="Aring" unicode="&#xc5;" horiz-adv-x="609" 
 />
    <glyph glyph-name="Cacute" unicode="&#xc6;" horiz-adv-x="1461" 
d="M1361 0l-987 -0.00292969c-284 16.667 -404 250.334 -360 701.001s219 683.667 525 699l961 -1l-34 -341h-849c-63.333 -0.666992 -109.666 -23 -138.999 -67c-68 -173.333 -95 -346.666 -81 -519.999c7.33301 -55.333 40.666 -90.666 99.999 -105.999l900 -2zM719 1587
c4.66699 120.667 63 185.999 175 195.999c120 -4.66699 183.333 -65 190 -181c-4.66699 -115.333 -69 -174.666 -193 -177.999c-102 12 -159.333 66.333 -172 163z" />
    <glyph glyph-name="Cacute" unicode="&#x106;" horiz-adv-x="1461" 
d="M1361 0l-987 -0.00292969c-284 16.667 -404 250.334 -360 701.001s219 683.667 525 699l961 -1l-34 -341h-849c-63.333 -0.666992 -109.666 -23 -138.999 -67c-68 -173.333 -95 -346.666 -81 -519.999c7.33301 -55.333 40.666 -90.666 99.999 -105.999l900 -2zM719 1587
c4.66699 120.667 63 185.999 175 195.999c120 -4.66699 183.333 -65 190 -181c-4.66699 -115.333 -69 -174.666 -193 -177.999c-102 12 -159.333 66.333 -172 163z" />
    <glyph glyph-name="Ccedilla" unicode="&#xc7;" horiz-adv-x="729" 
 />
    <glyph glyph-name="Egrave" unicode="&#xc8;" horiz-adv-x="648" 
 />
    <glyph glyph-name="Eacute" unicode="&#xc9;" horiz-adv-x="648" 
 />
    <glyph glyph-name="Eogonek" unicode="&#xca;" horiz-adv-x="1463" 
d="M1362 0l-986 -0.000976562c-282.667 16.667 -402.167 249.834 -358.5 699.501s218.5 682.167 524.5 697.5h959l-34 -340l-850 -1c-72 2.66699 -115 -15.333 -129 -54l-34 -120l997 -1l-36 -336l-989 4l1 -79c2.66699 -66.667 26.667 -102.667 72 -108l899 1z
M980 -210.001c12.667 -96.667 70 -150.999 172 -162.999c124 3.33301 188.333 62.666 193 177.999c-6.66699 116 -70 176.333 -190 181c-112 -10 -170.333 -75.333 -175 -196z" />
    <glyph glyph-name="Eogonek" unicode="&#x118;" horiz-adv-x="1463" 
d="M1362 0l-986 -0.000976562c-282.667 16.667 -402.167 249.834 -358.5 699.501s218.5 682.167 524.5 697.5h959l-34 -340l-850 -1c-72 2.66699 -115 -15.333 -129 -54l-34 -120l997 -1l-36 -336l-989 4l1 -79c2.66699 -66.667 26.667 -102.667 72 -108l899 1z
M980 -210.001c12.667 -96.667 70 -150.999 172 -162.999c124 3.33301 188.333 62.666 193 177.999c-6.66699 116 -70 176.333 -190 181c-112 -10 -170.333 -75.333 -175 -196z" />
    <glyph glyph-name="Edieresis" unicode="&#xcb;" horiz-adv-x="648" 
 />
    <glyph glyph-name="Igrave" unicode="&#xcc;" horiz-adv-x="234" 
 />
    <glyph glyph-name="Iacute" unicode="&#xcd;" horiz-adv-x="234" 
 />
    <glyph glyph-name="Icircumflex" unicode="&#xce;" horiz-adv-x="234" 
 />
    <glyph glyph-name="Idieresis" unicode="&#xcf;" horiz-adv-x="234" 
 />
    <glyph glyph-name="Eth" unicode="&#xd0;" horiz-adv-x="663" 
 />
    <glyph glyph-name="Nacute" unicode="&#xd1;" horiz-adv-x="1453" 
d="M-34 -6l140.999 1407h951c274.667 6 404.334 -143 389.001 -447l-96 -959h-373l94 879c16.667 90.667 -17 133 -101 127h-518l-100 -1007h-387zM617.999 1603c4.66699 120.667 63 185.999 175 195.999c120 -4.66699 183.333 -65 190 -181
c-4.66699 -115.333 -69 -174.666 -193 -177.999c-102 12 -159.333 66.333 -172 163z" />
    <glyph glyph-name="Nacute" unicode="&#x143;" horiz-adv-x="1453" 
d="M-34 -6l140.999 1407h951c274.667 6 404.334 -143 389.001 -447l-96 -959h-373l94 879c16.667 90.667 -17 133 -101 127h-518l-100 -1007h-387zM617.999 1603c4.66699 120.667 63 185.999 175 195.999c120 -4.66699 183.333 -65 190 -181
c-4.66699 -115.333 -69 -174.666 -193 -177.999c-102 12 -159.333 66.333 -172 163z" />
    <glyph glyph-name="Ograve" unicode="&#xd2;" horiz-adv-x="696" 
 />
    <glyph glyph-name="Oacute.001" unicode="&#xd3;" horiz-adv-x="1534" 
d="M1055 -20l-664 -0.000976562c-295.333 -1.33301 -418.333 236.334 -369 713.001c46 482 225.667 724.333 539 727l545 -1c327.333 6 465 -226.667 413 -698c-22 -488 -176.667 -735 -464 -741zM405 465.999c20 -64 60.998 -101.999 122.998 -113.999l392 1
c66.667 7.33301 113.334 37.666 140.001 90.999c32.667 37.333 55.334 128.5 68.001 273.5s2.66699 237.5 -30 277.5c-31.333 42 -80 66 -146 72h-302c-87.333 -6.66699 -149.333 -49 -186 -127c-24 -36 -43 -117.5 -57 -244.5s-14.667 -203.5 -2 -229.5zM694.998 1612
c4.66699 120.667 63 185.999 175 195.999c120 -4.66699 183.333 -65 190 -181c-4.66699 -115.333 -69 -174.666 -193 -177.999c-102 12 -159.333 66.333 -172 163z" />
    <glyph glyph-name="Ocircumflex" unicode="&#xd4;" horiz-adv-x="696" 
 />
    <glyph glyph-name="Otilde" unicode="&#xd5;" horiz-adv-x="696" 
 />
    <glyph glyph-name="Odieresis" unicode="&#xd6;" horiz-adv-x="696" 
 />
    <glyph glyph-name="multiply" unicode="&#xd7;" 
 />
    <glyph glyph-name="Oslash" unicode="&#xd8;" horiz-adv-x="696" 
 />
    <glyph glyph-name="Ugrave" unicode="&#xd9;" horiz-adv-x="660" 
 />
    <glyph glyph-name="Uacute" unicode="&#xda;" horiz-adv-x="660" 
 />
    <glyph glyph-name="Ucircumflex" unicode="&#xdb;" horiz-adv-x="660" 
 />
    <glyph glyph-name="Udieresis" unicode="&#xdc;" horiz-adv-x="660" 
 />
    <glyph glyph-name="Yacute" unicode="&#xdd;" horiz-adv-x="526" 
 />
    <glyph glyph-name="Thorn" unicode="&#xde;" horiz-adv-x="576" 
 />
    <glyph glyph-name="germandbls" unicode="&#xdf;" horiz-adv-x="498" 
 />
    <glyph glyph-name="agrave" unicode="&#xe0;" horiz-adv-x="369" 
 />
    <glyph glyph-name="aacute" unicode="&#xe1;" horiz-adv-x="369" 
 />
    <glyph glyph-name="acircumflex" unicode="&#xe2;" horiz-adv-x="369" 
 />
    <glyph glyph-name="atilde" unicode="&#xe3;" horiz-adv-x="369" 
 />
    <glyph glyph-name="adieresis" unicode="&#xe4;" horiz-adv-x="369" 
 />
    <glyph glyph-name="aring" unicode="&#xe5;" horiz-adv-x="369" 
 />
    <glyph glyph-name="cacute" unicode="&#xe6;" horiz-adv-x="1461" 
d="M1358 0l-987 -0.00292969c-284 16.667 -404 250.334 -360 701.001s219 683.667 525 699l961 -1l-34 -341h-849c-63.333 -0.666992 -109.666 -23 -138.999 -67c-68 -173.333 -95 -346.666 -81 -519.999c7.33301 -55.333 40.666 -90.666 99.999 -105.999l900 -2zM716 1587
c4.66699 120.667 63 185.999 175 195.999c120 -4.66699 183.333 -65 190 -181c-4.66699 -115.333 -69 -174.666 -193 -177.999c-102 12 -159.333 66.333 -172 163z" />
    <glyph glyph-name="cacute" unicode="&#x107;" horiz-adv-x="1461" 
d="M1358 0l-987 -0.00292969c-284 16.667 -404 250.334 -360 701.001s219 683.667 525 699l961 -1l-34 -341h-849c-63.333 -0.666992 -109.666 -23 -138.999 -67c-68 -173.333 -95 -346.666 -81 -519.999c7.33301 -55.333 40.666 -90.666 99.999 -105.999l900 -2zM716 1587
c4.66699 120.667 63 185.999 175 195.999c120 -4.66699 183.333 -65 190 -181c-4.66699 -115.333 -69 -174.666 -193 -177.999c-102 12 -159.333 66.333 -172 163z" />
    <glyph glyph-name="ccedilla" unicode="&#xe7;" horiz-adv-x="510" 
 />
    <glyph glyph-name="egrave" unicode="&#xe8;" horiz-adv-x="486" 
 />
    <glyph glyph-name="eacute" unicode="&#xe9;" horiz-adv-x="486" 
 />
    <glyph glyph-name="eogonek" unicode="&#xea;" horiz-adv-x="1472" 
d="M1370 0l-986 -0.000976562c-282.667 16.667 -402.167 249.834 -358.5 699.501s218.5 682.167 524.5 697.5h959l-37 -343l-847 2c-72 2.66699 -115 -15.333 -129 -54l-34 -120l994 2l-36 -336l-986 1l1 -79c2.66699 -66.667 26.667 -102.667 72 -108l899 1zM988 -210.001
c12.667 -96.667 70 -150.999 172 -162.999c124 3.33301 188.333 62.666 193 177.999c-6.66699 116 -70 176.333 -190 181c-112 -10 -170.333 -75.333 -175 -196z" />
    <glyph glyph-name="eogonek" unicode="&#x119;" horiz-adv-x="1472" 
d="M1370 0l-986 -0.000976562c-282.667 16.667 -402.167 249.834 -358.5 699.501s218.5 682.167 524.5 697.5h959l-37 -343l-847 2c-72 2.66699 -115 -15.333 -129 -54l-34 -120l994 2l-36 -336l-986 1l1 -79c2.66699 -66.667 26.667 -102.667 72 -108l899 1zM988 -210.001
c12.667 -96.667 70 -150.999 172 -162.999c124 3.33301 188.333 62.666 193 177.999c-6.66699 116 -70 176.333 -190 181c-112 -10 -170.333 -75.333 -175 -196z" />
    <glyph glyph-name="edieresis" unicode="&#xeb;" horiz-adv-x="486" 
 />
    <glyph glyph-name="igrave" unicode="&#xec;" horiz-adv-x="234" 
 />
    <glyph glyph-name="iacute" unicode="&#xed;" horiz-adv-x="234" 
 />
    <glyph glyph-name="icircumflex" unicode="&#xee;" horiz-adv-x="234" 
 />
    <glyph glyph-name="idieresis" unicode="&#xef;" horiz-adv-x="234" 
 />
    <glyph glyph-name="eth" unicode="&#xf0;" horiz-adv-x="483" 
 />
    <glyph glyph-name="nacute" unicode="&#xf1;" horiz-adv-x="1454" 
d="M-34 -6l140.999 1407h951c274.667 6 404.334 -143 389.001 -447l-96 -959h-373l94 879c16.667 90.667 -17 133 -101 127h-518l-100 -1007h-387zM617.999 1603c4.66699 120.667 63 185.999 175 195.999c120 -4.66699 183.333 -65 190 -181
c-4.66699 -115.333 -69 -174.666 -193 -177.999c-102 12 -159.333 66.333 -172 163z" />
    <glyph glyph-name="nacute" unicode="&#x144;" horiz-adv-x="1454" 
d="M-34 -6l140.999 1407h951c274.667 6 404.334 -143 389.001 -447l-96 -959h-373l94 879c16.667 90.667 -17 133 -101 127h-518l-100 -1007h-387zM617.999 1603c4.66699 120.667 63 185.999 175 195.999c120 -4.66699 183.333 -65 190 -181
c-4.66699 -115.333 -69 -174.666 -193 -177.999c-102 12 -159.333 66.333 -172 163z" />
    <glyph glyph-name="ograve" unicode="&#xf2;" horiz-adv-x="366" 
 />
    <glyph glyph-name="oacute" unicode="&#xf3;" horiz-adv-x="1529" 
d="M1052 -20l-664 -0.000976562c-295.333 -1.33301 -418.333 236.334 -369 713.001c46 482 225.667 724.333 539 727l545 -1c327.333 6 465 -226.667 413 -698c-22 -488 -176.667 -735 -464 -741zM402 465.999c20 -64 60.998 -101.999 122.998 -113.999l392 1
c66.667 7.33301 113.334 37.666 140.001 90.999c32.667 37.333 55.334 128.5 68.001 273.5s2.66699 237.5 -30 277.5c-31.333 42 -80 66 -146 72h-302c-87.333 -6.66699 -149.333 -49 -186 -127c-24 -36 -43 -117.5 -57 -244.5s-14.667 -203.5 -2 -229.5zM691.998 1612
c4.66699 120.667 63 185.999 175 195.999c120 -4.66699 183.333 -65 190 -181c-4.66699 -115.333 -69 -174.666 -193 -177.999c-102 12 -159.333 66.333 -172 163z" />
    <glyph glyph-name="ocircumflex" unicode="&#xf4;" horiz-adv-x="366" 
 />
    <glyph glyph-name="otilde" unicode="&#xf5;" horiz-adv-x="366" 
 />
    <glyph glyph-name="odieresis" unicode="&#xf6;" horiz-adv-x="366" 
 />
    <glyph glyph-name="divide" unicode="&#xf7;" 
 />
    <glyph glyph-name="oslash" unicode="&#xf8;" horiz-adv-x="366" 
 />
    <glyph glyph-name="ugrave" unicode="&#xf9;" horiz-adv-x="342" 
 />
    <glyph glyph-name="uacute" unicode="&#xfa;" horiz-adv-x="342" 
 />
    <glyph glyph-name="ucircumflex" unicode="&#xfb;" horiz-adv-x="342" 
 />
    <glyph glyph-name="udieresis" unicode="&#xfc;" horiz-adv-x="342" 
 />
    <glyph glyph-name="yacute" unicode="&#xfd;" horiz-adv-x="393" 
 />
    <glyph glyph-name="thorn" unicode="&#xfe;" horiz-adv-x="348" 
 />
    <glyph glyph-name="ydieresis" unicode="&#xff;" horiz-adv-x="393" 
 />
    <glyph glyph-name="dotlessi" unicode="&#x131;" horiz-adv-x="234" 
 />
    <glyph glyph-name="Sacute" unicode="&#x152;" horiz-adv-x="1355" 
d="M1358 1034h-774.998c-52.667 0 -93.167 -2.5 -121.5 -7.5s-53.166 -25.5 -74.499 -61.5c6.66699 -45.333 24.667 -70.833 54 -76.5s74.666 -8.5 135.999 -8.5h379c152 -8.66699 258.333 -52.667 319 -132s84 -190 70 -332c-22.667 -142 -72.667 -246.833 -150 -314.5
s-205 -102.834 -383 -105.501h-846l36 359h804c69.333 0 122.166 2.5 158.499 7.5s61.166 31.833 74.499 80.5c-4.66699 38.667 -23.167 61.834 -55.5 69.501s-86.5 11.5 -162.5 11.5h-366c-161.333 0 -275.5 39.333 -342.5 118s-93.5 187.667 -79.5 327
c26 146 78.667 252 158 318s205 103 377 111h826zM593.002 1597c4.66699 120.667 63 185.999 175 195.999c120 -4.66699 183.333 -65 190 -181c-4.66699 -115.333 -69 -174.666 -193 -177.999c-102 12 -159.333 66.333 -172 163z" />
    <glyph glyph-name="Sacute" unicode="&#x15a;" horiz-adv-x="1355" 
d="M1358 1034h-774.998c-52.667 0 -93.167 -2.5 -121.5 -7.5s-53.166 -25.5 -74.499 -61.5c6.66699 -45.333 24.667 -70.833 54 -76.5s74.666 -8.5 135.999 -8.5h379c152 -8.66699 258.333 -52.667 319 -132s84 -190 70 -332c-22.667 -142 -72.667 -246.833 -150 -314.5
s-205 -102.834 -383 -105.501h-846l36 359h804c69.333 0 122.166 2.5 158.499 7.5s61.166 31.833 74.499 80.5c-4.66699 38.667 -23.167 61.834 -55.5 69.501s-86.5 11.5 -162.5 11.5h-366c-161.333 0 -275.5 39.333 -342.5 118s-93.5 187.667 -79.5 327
c26 146 78.667 252 158 318s205 103 377 111h826zM593.002 1597c4.66699 120.667 63 185.999 175 195.999c120 -4.66699 183.333 -65 190 -181c-4.66699 -115.333 -69 -174.666 -193 -177.999c-102 12 -159.333 66.333 -172 163z" />
    <glyph glyph-name="sacute" unicode="&#x153;" horiz-adv-x="1352" 
d="M1352 1034h-774.998c-52.667 0 -93.167 -2.5 -121.5 -7.5s-53.166 -25.5 -74.499 -61.5c6.66699 -45.333 24.667 -70.833 54 -76.5s74.666 -8.5 135.999 -8.5h379c152 -8.66699 258.333 -52.667 319 -132s84 -190 70 -332c-22.667 -142 -72.667 -246.833 -150 -314.5
s-205 -102.834 -383 -105.501h-846l36 359h804c69.333 0 122.166 2.5 158.499 7.5s61.166 31.833 74.499 80.5c-4.66699 38.667 -23.167 61.834 -55.5 69.501s-86.5 11.5 -162.5 11.5h-366c-161.333 0 -275.5 39.333 -342.5 118s-93.5 187.667 -79.5 327
c26 146 78.667 252 158 318s205 103 377 111h826zM587.002 1597c4.66699 120.667 63 185.999 175 195.999c120 -4.66699 183.333 -65 190 -181c-4.66699 -115.333 -69 -174.666 -193 -177.999c-102 12 -159.333 66.333 -172 163z" />
    <glyph glyph-name="sacute" unicode="&#x15b;" horiz-adv-x="1352" 
d="M1352 1034h-774.998c-52.667 0 -93.167 -2.5 -121.5 -7.5s-53.166 -25.5 -74.499 -61.5c6.66699 -45.333 24.667 -70.833 54 -76.5s74.666 -8.5 135.999 -8.5h379c152 -8.66699 258.333 -52.667 319 -132s84 -190 70 -332c-22.667 -142 -72.667 -246.833 -150 -314.5
s-205 -102.834 -383 -105.501h-846l36 359h804c69.333 0 122.166 2.5 158.499 7.5s61.166 31.833 74.499 80.5c-4.66699 38.667 -23.167 61.834 -55.5 69.501s-86.5 11.5 -162.5 11.5h-366c-161.333 0 -275.5 39.333 -342.5 118s-93.5 187.667 -79.5 327
c26 146 78.667 252 158 318s205 103 377 111h826zM587.002 1597c4.66699 120.667 63 185.999 175 195.999c120 -4.66699 183.333 -65 190 -181c-4.66699 -115.333 -69 -174.666 -193 -177.999c-102 12 -159.333 66.333 -172 163z" />
    <glyph glyph-name="Scaron" unicode="&#x160;" horiz-adv-x="621" 
 />
    <glyph glyph-name="scaron" unicode="&#x161;" horiz-adv-x="342" 
 />
    <glyph glyph-name="zacute" unicode="&#x178;" horiz-adv-x="1523" 
d="M1400 909l-660.001 -513.998h727l-40 -400h-1216c-144 14 -224.333 80.667 -241 200c-7.33301 119.333 43 218.666 151 297.999l679 511h-719l39 394h624l81 117c62.667 96.667 163.5 141.667 302.5 135s191.833 -49.334 158.5 -128.001l-82 -124h128
c172.667 -8 247.334 -87 224.001 -237c-13.333 -107.333 -65.333 -191.333 -156 -252z" />
    <glyph glyph-name="zacute" unicode="&#x17a;" horiz-adv-x="1523" 
d="M1400 909l-660.001 -513.998h727l-40 -400h-1216c-144 14 -224.333 80.667 -241 200c-7.33301 119.333 43 218.666 151 297.999l679 511h-719l39 394h624l81 117c62.667 96.667 163.5 141.667 302.5 135s191.833 -49.334 158.5 -128.001l-82 -124h128
c172.667 -8 247.334 -87 224.001 -237c-13.333 -107.333 -65.333 -191.333 -156 -252z" />
    <glyph glyph-name="Zcaron" unicode="&#x17d;" horiz-adv-x="690" 
 />
    <glyph glyph-name="zcaron" unicode="&#x17e;" horiz-adv-x="462" 
 />
    <glyph glyph-name="florin" unicode="&#x192;" horiz-adv-x="576" 
 />
    <glyph glyph-name="circumflex" unicode="&#x2c6;" horiz-adv-x="360" 
 />
    <glyph glyph-name="caron" unicode="&#x2c7;" horiz-adv-x="360" 
 />
    <glyph glyph-name="macron" unicode="&#x2c9;" horiz-adv-x="360" 
 />
    <glyph glyph-name="breve" unicode="&#x2d8;" horiz-adv-x="360" 
 />
    <glyph glyph-name="dotaccent" unicode="&#x2d9;" horiz-adv-x="183" 
 />
    <glyph glyph-name="ring" unicode="&#x2da;" horiz-adv-x="360" 
 />
    <glyph glyph-name="ogonek" unicode="&#x2db;" horiz-adv-x="270" 
 />
    <glyph glyph-name="tilde" unicode="&#x2dc;" horiz-adv-x="483" 
 />
    <glyph glyph-name="hungarumlaut" unicode="&#x2dd;" horiz-adv-x="468" 
 />
    <glyph glyph-name="Delta" unicode="&#x394;" horiz-adv-x="366" 
 />
    <glyph glyph-name="Delta" unicode="&#x2206;" horiz-adv-x="366" 
 />
    <glyph glyph-name="Omega" unicode="&#x3a9;" horiz-adv-x="1443" 
 />
    <glyph glyph-name="Omega" unicode="&#x2126;" horiz-adv-x="1443" 
 />
    <glyph glyph-name="pi" unicode="&#x3c0;" horiz-adv-x="798" 
 />
    <glyph glyph-name="endash" unicode="&#x2013;" horiz-adv-x="684" 
 />
    <glyph glyph-name="emdash" unicode="&#x2014;" horiz-adv-x="894" 
 />
    <glyph glyph-name="quoteleft" unicode="&#x2018;" horiz-adv-x="237" 
 />
    <glyph glyph-name="quoteright" unicode="&#x2019;" horiz-adv-x="240" 
 />
    <glyph glyph-name="quotesinglbase" unicode="&#x201a;" horiz-adv-x="234" 
 />
    <glyph glyph-name="quotedblleft" unicode="&#x201c;" horiz-adv-x="342" 
 />
    <glyph glyph-name="quotedblright" unicode="&#x201d;" horiz-adv-x="300" 
 />
    <glyph glyph-name="quotedblbase" unicode="&#x201e;" horiz-adv-x="402" 
 />
    <glyph glyph-name="dagger" unicode="&#x2020;" horiz-adv-x="451" 
 />
    <glyph glyph-name="daggerdbl" unicode="&#x2021;" horiz-adv-x="336" 
 />
    <glyph glyph-name="bullet" unicode="&#x2022;" horiz-adv-x="387" 
 />
    <glyph glyph-name="ellipsis" unicode="&#x2026;" horiz-adv-x="792" 
 />
    <glyph glyph-name="perthousand" unicode="&#x2030;" horiz-adv-x="729" 
 />
    <glyph glyph-name="guilsinglleft" unicode="&#x2039;" horiz-adv-x="321" 
 />
    <glyph glyph-name="guilsinglright" unicode="&#x203a;" horiz-adv-x="321" 
 />
    <glyph glyph-name="fraction" unicode="&#x2044;" horiz-adv-x="234" 
 />
    <glyph glyph-name="trademark" unicode="&#x2122;" horiz-adv-x="681" 
 />
    <glyph glyph-name="partialdiff" unicode="&#x2202;" horiz-adv-x="483" 
 />
    <glyph glyph-name="product" unicode="&#x220f;" horiz-adv-x="798" 
 />
    <glyph glyph-name="summation" unicode="&#x2211;" horiz-adv-x="1398" 
 />
    <glyph glyph-name="radical" unicode="&#x221a;" horiz-adv-x="819" 
 />
    <glyph glyph-name="infinity" unicode="&#x221e;" horiz-adv-x="669" 
 />
    <glyph glyph-name="integral" unicode="&#x222b;" horiz-adv-x="1398" 
 />
    <glyph glyph-name="approxequal" unicode="&#x2248;" 
 />
    <glyph glyph-name="approxequal" unicode="&#x22f2;" 
 />
    <glyph glyph-name="notequal" unicode="&#x2260;" 
 />
    <glyph glyph-name="lessequal" unicode="&#x2264;" horiz-adv-x="342" 
 />
    <glyph glyph-name="greaterequal" unicode="&#x2265;" horiz-adv-x="342" 
 />
    <glyph glyph-name="lozenge" unicode="&#x25ca;" horiz-adv-x="243" 
 />
    <glyph glyph-name="apple" unicode="&#xf000;" horiz-adv-x="588" 
 />
    <glyph glyph-name="fi" unicode="&#xf001;" horiz-adv-x="525" 
 />
    <glyph glyph-name="fl" unicode="&#xf002;" horiz-adv-x="480" 
 />
    <glyph glyph-name=".null" horiz-adv-x="0" 
 />
    <glyph glyph-name="nonmarkingreturn" horiz-adv-x="390" 
 />
    <glyph glyph-name="Ntilde" horiz-adv-x="612" 
 />
    <glyph glyph-name="ecircumflex" horiz-adv-x="486" 
 />
    <glyph glyph-name="ntilde" horiz-adv-x="384" 
 />
    <glyph glyph-name="oacute.001" horiz-adv-x="366" 
 />
    <glyph glyph-name="sterling" 
 />
    <glyph glyph-name="AE" horiz-adv-x="819" 
 />
    <glyph glyph-name="yen" 
 />
    <glyph glyph-name="ae" horiz-adv-x="747" 
 />
    <glyph glyph-name="questiondown" horiz-adv-x="567" 
 />
    <glyph glyph-name="OE" horiz-adv-x="954" 
 />
    <glyph glyph-name="oe" horiz-adv-x="756" 
 />
    <glyph glyph-name="Ydieresis" horiz-adv-x="526" 
 />
    <glyph glyph-name="Ecircumflex" horiz-adv-x="648" 
 />
    <glyph glyph-name="Oacute" horiz-adv-x="696" 
 />
    <glyph glyph-name="onesuperior" horiz-adv-x="300" 
 />
    <glyph glyph-name="threesuperior" horiz-adv-x="300" 
 />
    <glyph glyph-name="Lslash.001" horiz-adv-x="570" 
 />
    <glyph glyph-name="lslash.001" horiz-adv-x="213" 
 />
  </font>
</defs>
</svg>
